<mxfile host="Electron" modified="2024-04-25T16:25:30.542Z" agent="Mozilla/5.0 (Windows NT 10.0; Win64; x64) AppleWebKit/537.36 (KHTML, like Gecko) draw.io/24.2.5 Chrome/120.0.6099.109 Electron/28.1.0 Safari/537.36" etag="81VjA9Ks_JEBytXj7bYO" version="24.2.5" type="device">
  <diagram name="Page-1" id="xOiZpuU5NRIlTT_HSMJ2">
    <mxGraphModel dx="1001" dy="744" grid="1" gridSize="10" guides="1" tooltips="1" connect="1" arrows="1" fold="1" page="1" pageScale="1" pageWidth="850" pageHeight="1100" math="0" shadow="0">
      <root>
        <mxCell id="0" />
        <mxCell id="1" parent="0" />
        <mxCell id="Z2hQnSYMev5sJFBsLuZH-76" value="Availability Zone 1" style="fillColor=none;strokeColor=#147EBA;dashed=1;verticalAlign=top;fontStyle=0;fontColor=#147EBA;whiteSpace=wrap;html=1;align=left;" vertex="1" parent="1">
          <mxGeometry x="170" y="375" width="270" height="345" as="geometry" />
        </mxCell>
        <mxCell id="Z2hQnSYMev5sJFBsLuZH-5" value="Public subnet" style="points=[[0,0],[0.25,0],[0.5,0],[0.75,0],[1,0],[1,0.25],[1,0.5],[1,0.75],[1,1],[0.75,1],[0.5,1],[0.25,1],[0,1],[0,0.75],[0,0.5],[0,0.25]];outlineConnect=0;gradientColor=none;html=1;whiteSpace=wrap;fontSize=12;fontStyle=0;container=1;pointerEvents=0;collapsible=0;recursiveResize=0;shape=mxgraph.aws4.group;grIcon=mxgraph.aws4.group_security_group;grStroke=0;strokeColor=#7AA116;fillColor=#F2F6E8;verticalAlign=top;align=left;spacingLeft=30;fontColor=#248814;dashed=0;" vertex="1" parent="1">
          <mxGeometry x="179" y="581" width="256" height="127" as="geometry" />
        </mxCell>
        <mxCell id="Z2hQnSYMev5sJFBsLuZH-2" value="Region" style="points=[[0,0],[0.25,0],[0.5,0],[0.75,0],[1,0],[1,0.25],[1,0.5],[1,0.75],[1,1],[0.75,1],[0.5,1],[0.25,1],[0,1],[0,0.75],[0,0.5],[0,0.25]];outlineConnect=0;gradientColor=none;html=1;whiteSpace=wrap;fontSize=12;fontStyle=0;container=1;pointerEvents=0;collapsible=0;recursiveResize=0;shape=mxgraph.aws4.group;grIcon=mxgraph.aws4.group_region;strokeColor=#00A4A6;fillColor=none;verticalAlign=top;align=left;spacingLeft=30;fontColor=#147EBA;dashed=1;" vertex="1" parent="1">
          <mxGeometry x="110" y="130" width="710" height="610" as="geometry" />
        </mxCell>
        <mxCell id="Z2hQnSYMev5sJFBsLuZH-3" value="VPC" style="points=[[0,0],[0.25,0],[0.5,0],[0.75,0],[1,0],[1,0.25],[1,0.5],[1,0.75],[1,1],[0.75,1],[0.5,1],[0.25,1],[0,1],[0,0.75],[0,0.5],[0,0.25]];outlineConnect=0;gradientColor=none;html=1;whiteSpace=wrap;fontSize=12;fontStyle=0;container=1;pointerEvents=0;collapsible=0;recursiveResize=0;shape=mxgraph.aws4.group;grIcon=mxgraph.aws4.group_vpc2;strokeColor=#8C4FFF;fillColor=none;verticalAlign=top;align=left;spacingLeft=30;fontColor=#AAB7B8;dashed=0;" vertex="1" parent="1">
          <mxGeometry x="160" y="160" width="640" height="570" as="geometry" />
        </mxCell>
        <mxCell id="Z2hQnSYMev5sJFBsLuZH-52" value="" style="whiteSpace=wrap;html=1;aspect=fixed;dashed=1;" vertex="1" parent="Z2hQnSYMev5sJFBsLuZH-3">
          <mxGeometry x="25" y="53" width="131" height="131" as="geometry" />
        </mxCell>
        <mxCell id="Z2hQnSYMev5sJFBsLuZH-9" value="" style="outlineConnect=0;dashed=0;verticalLabelPosition=bottom;verticalAlign=top;align=center;html=1;shape=mxgraph.aws3.application_load_balancer;fillColor=#F58536;gradientColor=none;shadow=0;" vertex="1" parent="Z2hQnSYMev5sJFBsLuZH-3">
          <mxGeometry x="284.5" y="48" width="69" height="72" as="geometry" />
        </mxCell>
        <mxCell id="Z2hQnSYMev5sJFBsLuZH-27" value="" style="sketch=0;points=[[0,0,0],[0.25,0,0],[0.5,0,0],[0.75,0,0],[1,0,0],[0,1,0],[0.25,1,0],[0.5,1,0],[0.75,1,0],[1,1,0],[0,0.25,0],[0,0.5,0],[0,0.75,0],[1,0.25,0],[1,0.5,0],[1,0.75,0]];outlineConnect=0;fontColor=#232F3E;fillColor=#ED7100;strokeColor=#ffffff;dashed=0;verticalLabelPosition=bottom;verticalAlign=top;align=center;html=1;fontSize=12;fontStyle=0;aspect=fixed;shape=mxgraph.aws4.resourceIcon;resIcon=mxgraph.aws4.ecs;" vertex="1" parent="Z2hQnSYMev5sJFBsLuZH-3">
          <mxGeometry x="25" y="53" width="30" height="30" as="geometry" />
        </mxCell>
        <mxCell id="Z2hQnSYMev5sJFBsLuZH-47" value="ECS Cluster" style="text;html=1;align=left;verticalAlign=middle;whiteSpace=wrap;rounded=0;fontStyle=1" vertex="1" parent="Z2hQnSYMev5sJFBsLuZH-3">
          <mxGeometry x="60" y="53" width="81" height="30" as="geometry" />
        </mxCell>
        <mxCell id="Z2hQnSYMev5sJFBsLuZH-54" value="" style="sketch=0;outlineConnect=0;fontColor=#232F3E;gradientColor=none;fillColor=#ED7100;strokeColor=none;dashed=0;verticalLabelPosition=bottom;verticalAlign=top;align=center;html=1;fontSize=12;fontStyle=0;aspect=fixed;pointerEvents=1;shape=mxgraph.aws4.ecs_service;" vertex="1" parent="Z2hQnSYMev5sJFBsLuZH-3">
          <mxGeometry x="55" y="133" width="29" height="35.69" as="geometry" />
        </mxCell>
        <mxCell id="Z2hQnSYMev5sJFBsLuZH-57" value="" style="edgeStyle=orthogonalEdgeStyle;html=1;endArrow=none;elbow=vertical;startArrow=block;startFill=1;strokeColor=#545B64;rounded=0;" edge="1" parent="Z2hQnSYMev5sJFBsLuZH-3" source="Z2hQnSYMev5sJFBsLuZH-28" target="Z2hQnSYMev5sJFBsLuZH-54">
          <mxGeometry width="100" relative="1" as="geometry">
            <mxPoint x="210" y="220" as="sourcePoint" />
            <mxPoint x="310" y="220" as="targetPoint" />
          </mxGeometry>
        </mxCell>
        <mxCell id="Z2hQnSYMev5sJFBsLuZH-64" value="Autoscaling" style="text;html=1;align=left;verticalAlign=middle;whiteSpace=wrap;rounded=0;fontStyle=1" vertex="1" parent="Z2hQnSYMev5sJFBsLuZH-3">
          <mxGeometry x="354.5" y="153" width="81" height="30" as="geometry" />
        </mxCell>
        <mxCell id="Z2hQnSYMev5sJFBsLuZH-67" value="" style="edgeStyle=orthogonalEdgeStyle;html=1;endArrow=none;elbow=vertical;startArrow=block;startFill=1;strokeColor=#545B64;rounded=0;" edge="1" parent="Z2hQnSYMev5sJFBsLuZH-3" source="Z2hQnSYMev5sJFBsLuZH-62" target="Z2hQnSYMev5sJFBsLuZH-9">
          <mxGeometry width="100" relative="1" as="geometry">
            <mxPoint x="210" y="120" as="sourcePoint" />
            <mxPoint x="310" y="120" as="targetPoint" />
          </mxGeometry>
        </mxCell>
        <mxCell id="Z2hQnSYMev5sJFBsLuZH-63" value="" style="whiteSpace=wrap;html=1;aspect=fixed;strokeColor=#66B2FF;" vertex="1" parent="Z2hQnSYMev5sJFBsLuZH-3">
          <mxGeometry x="293" y="161" width="52" height="52" as="geometry" />
        </mxCell>
        <mxCell id="Z2hQnSYMev5sJFBsLuZH-77" value="Availability Zone 2" style="fillColor=none;strokeColor=#147EBA;dashed=1;verticalAlign=top;fontStyle=0;fontColor=#147EBA;whiteSpace=wrap;html=1;align=right;" vertex="1" parent="Z2hQnSYMev5sJFBsLuZH-3">
          <mxGeometry x="360" y="212" width="270" height="345" as="geometry" />
        </mxCell>
        <mxCell id="Z2hQnSYMev5sJFBsLuZH-62" value="" style="outlineConnect=0;fontColor=#ffffff;fillColor=#1ba1e2;strokeColor=#000000;verticalLabelPosition=bottom;verticalAlign=top;align=center;html=1;fontSize=12;fontStyle=0;aspect=fixed;pointerEvents=1;shape=mxgraph.aws4.auto_scaling2;perimeterSpacing=1;labelBorderColor=#1A1A1A;fillStyle=solid;shadow=0;fixDash=0;container=0;backgroundOutline=0;" vertex="1" parent="Z2hQnSYMev5sJFBsLuZH-3">
          <mxGeometry x="295" y="164" width="48" height="48" as="geometry" />
        </mxCell>
        <mxCell id="Z2hQnSYMev5sJFBsLuZH-82" value="" style="group" vertex="1" connectable="0" parent="Z2hQnSYMev5sJFBsLuZH-3">
          <mxGeometry x="18" y="248" width="257" height="162" as="geometry" />
        </mxCell>
        <mxCell id="Z2hQnSYMev5sJFBsLuZH-6" value="Private subnet" style="points=[[0,0],[0.25,0],[0.5,0],[0.75,0],[1,0],[1,0.25],[1,0.5],[1,0.75],[1,1],[0.75,1],[0.5,1],[0.25,1],[0,1],[0,0.75],[0,0.5],[0,0.25]];outlineConnect=0;gradientColor=none;html=1;whiteSpace=wrap;fontSize=12;fontStyle=0;container=1;pointerEvents=0;collapsible=0;recursiveResize=0;shape=mxgraph.aws4.group;grIcon=mxgraph.aws4.group_security_group;grStroke=0;strokeColor=#00A4A6;fillColor=#E6F6F7;verticalAlign=top;align=left;spacingLeft=30;fontColor=#147EBA;dashed=0;" vertex="1" parent="Z2hQnSYMev5sJFBsLuZH-82">
          <mxGeometry width="257" height="162" as="geometry" />
        </mxCell>
        <mxCell id="Z2hQnSYMev5sJFBsLuZH-26" value="" style="rounded=0;whiteSpace=wrap;html=1;" vertex="1" parent="Z2hQnSYMev5sJFBsLuZH-82">
          <mxGeometry x="10" y="35.5" width="190" height="114.5" as="geometry" />
        </mxCell>
        <mxCell id="Z2hQnSYMev5sJFBsLuZH-14" value="" style="sketch=0;outlineConnect=0;fontColor=#232F3E;gradientColor=none;fillColor=#ED7100;strokeColor=none;dashed=0;verticalLabelPosition=bottom;verticalAlign=top;align=center;html=1;fontSize=12;fontStyle=0;aspect=fixed;pointerEvents=1;shape=mxgraph.aws4.container_1;" vertex="1" parent="Z2hQnSYMev5sJFBsLuZH-82">
          <mxGeometry x="37" y="90" width="48" height="31" as="geometry" />
        </mxCell>
        <mxCell id="Z2hQnSYMev5sJFBsLuZH-15" value="" style="sketch=0;outlineConnect=0;fontColor=#232F3E;gradientColor=none;fillColor=#ED7100;strokeColor=none;dashed=0;verticalLabelPosition=bottom;verticalAlign=top;align=center;html=1;fontSize=12;fontStyle=0;aspect=fixed;pointerEvents=1;shape=mxgraph.aws4.container_1;" vertex="1" parent="Z2hQnSYMev5sJFBsLuZH-82">
          <mxGeometry x="128" y="90" width="48" height="31" as="geometry" />
        </mxCell>
        <mxCell id="Z2hQnSYMev5sJFBsLuZH-28" value="" style="sketch=0;outlineConnect=0;fontColor=#232F3E;gradientColor=none;fillColor=#ED7100;strokeColor=none;dashed=0;verticalLabelPosition=bottom;verticalAlign=top;align=center;html=1;fontSize=12;fontStyle=0;aspect=fixed;pointerEvents=1;shape=mxgraph.aws4.ecs_task;" vertex="1" parent="Z2hQnSYMev5sJFBsLuZH-82">
          <mxGeometry x="39.75" y="28" width="22.5" height="29.19" as="geometry" />
        </mxCell>
        <mxCell id="Z2hQnSYMev5sJFBsLuZH-70" value="" style="edgeStyle=orthogonalEdgeStyle;rounded=0;orthogonalLoop=1;jettySize=auto;html=1;entryX=0.858;entryY=-0.035;entryDx=0;entryDy=0;entryPerimeter=0;" edge="1" parent="Z2hQnSYMev5sJFBsLuZH-3" source="Z2hQnSYMev5sJFBsLuZH-62" target="Z2hQnSYMev5sJFBsLuZH-26">
          <mxGeometry relative="1" as="geometry">
            <mxPoint x="190" y="410" as="targetPoint" />
            <Array as="points">
              <mxPoint x="190" y="186" />
            </Array>
          </mxGeometry>
        </mxCell>
        <mxCell id="Z2hQnSYMev5sJFBsLuZH-50" value="Container 1" style="text;html=1;align=center;verticalAlign=middle;whiteSpace=wrap;rounded=0;fontSize=10;" vertex="1" parent="1">
          <mxGeometry x="211" y="521.19" width="57" height="30" as="geometry" />
        </mxCell>
        <mxCell id="Z2hQnSYMev5sJFBsLuZH-51" value="Container n" style="text;html=1;align=center;verticalAlign=middle;whiteSpace=wrap;rounded=0;fontSize=10;" vertex="1" parent="1">
          <mxGeometry x="300" y="522.19" width="57" height="30" as="geometry" />
        </mxCell>
        <mxCell id="Z2hQnSYMev5sJFBsLuZH-55" value="ECS Service with Fargate Launch Type" style="text;html=1;align=center;verticalAlign=middle;whiteSpace=wrap;rounded=0;fontSize=10;" vertex="1" parent="1">
          <mxGeometry x="197" y="254.19" width="99" height="30" as="geometry" />
        </mxCell>
        <mxCell id="Z2hQnSYMev5sJFBsLuZH-60" value="ECS Task" style="text;html=1;align=center;verticalAlign=middle;whiteSpace=wrap;rounded=0;fontSize=10;" vertex="1" parent="1">
          <mxGeometry x="211" y="462.19000000000005" width="57" height="30" as="geometry" />
        </mxCell>
        <mxCell id="Z2hQnSYMev5sJFBsLuZH-65" value="Application Load Balancer" style="text;html=1;align=left;verticalAlign=middle;whiteSpace=wrap;rounded=0;fontStyle=1" vertex="1" parent="1">
          <mxGeometry x="524.5" y="228" width="85.5" height="30" as="geometry" />
        </mxCell>
        <mxCell id="Z2hQnSYMev5sJFBsLuZH-73" value="devices" style="sketch=0;outlineConnect=0;gradientColor=none;fontColor=#545B64;strokeColor=none;fillColor=#879196;dashed=0;verticalLabelPosition=bottom;verticalAlign=top;align=center;html=1;fontSize=12;fontStyle=0;aspect=fixed;shape=mxgraph.aws4.illustration_devices;pointerEvents=1;fillStyle=solid;" vertex="1" parent="1">
          <mxGeometry x="444" y="8" width="70" height="51.1" as="geometry" />
        </mxCell>
        <mxCell id="Z2hQnSYMev5sJFBsLuZH-75" value="" style="edgeStyle=orthogonalEdgeStyle;html=1;endArrow=none;elbow=vertical;startArrow=block;startFill=1;strokeColor=#545B64;rounded=0;" edge="1" parent="1" source="Z2hQnSYMev5sJFBsLuZH-9" target="Z2hQnSYMev5sJFBsLuZH-73">
          <mxGeometry width="100" relative="1" as="geometry">
            <mxPoint x="270" y="330" as="sourcePoint" />
            <mxPoint x="370" y="330" as="targetPoint" />
          </mxGeometry>
        </mxCell>
        <mxCell id="Z2hQnSYMev5sJFBsLuZH-83" value="" style="group" vertex="1" connectable="0" parent="1">
          <mxGeometry x="525" y="409" width="260" height="162" as="geometry" />
        </mxCell>
        <mxCell id="Z2hQnSYMev5sJFBsLuZH-39" value="Private subnet" style="points=[[0,0],[0.25,0],[0.5,0],[0.75,0],[1,0],[1,0.25],[1,0.5],[1,0.75],[1,1],[0.75,1],[0.5,1],[0.25,1],[0,1],[0,0.75],[0,0.5],[0,0.25]];outlineConnect=0;gradientColor=none;html=1;whiteSpace=wrap;fontSize=12;fontStyle=0;container=1;pointerEvents=0;collapsible=0;recursiveResize=0;shape=mxgraph.aws4.group;grIcon=mxgraph.aws4.group_security_group;grStroke=0;strokeColor=#00A4A6;fillColor=#E6F6F7;verticalAlign=top;align=left;spacingLeft=30;fontColor=#147EBA;dashed=0;" vertex="1" parent="Z2hQnSYMev5sJFBsLuZH-83">
          <mxGeometry width="260" height="162" as="geometry" />
        </mxCell>
        <mxCell id="Z2hQnSYMev5sJFBsLuZH-40" value="" style="rounded=0;whiteSpace=wrap;html=1;" vertex="1" parent="Z2hQnSYMev5sJFBsLuZH-83">
          <mxGeometry x="60" y="32.5" width="190" height="114.5" as="geometry" />
        </mxCell>
        <mxCell id="Z2hQnSYMev5sJFBsLuZH-41" value="" style="sketch=0;outlineConnect=0;fontColor=#232F3E;gradientColor=none;fillColor=#ED7100;strokeColor=none;dashed=0;verticalLabelPosition=bottom;verticalAlign=top;align=center;html=1;fontSize=12;fontStyle=0;aspect=fixed;pointerEvents=1;shape=mxgraph.aws4.container_1;" vertex="1" parent="Z2hQnSYMev5sJFBsLuZH-83">
          <mxGeometry x="87" y="90" width="48" height="31" as="geometry" />
        </mxCell>
        <mxCell id="Z2hQnSYMev5sJFBsLuZH-42" value="" style="sketch=0;outlineConnect=0;fontColor=#232F3E;gradientColor=none;fillColor=#ED7100;strokeColor=none;dashed=0;verticalLabelPosition=bottom;verticalAlign=top;align=center;html=1;fontSize=12;fontStyle=0;aspect=fixed;pointerEvents=1;shape=mxgraph.aws4.container_1;" vertex="1" parent="Z2hQnSYMev5sJFBsLuZH-83">
          <mxGeometry x="178" y="90" width="48" height="31" as="geometry" />
        </mxCell>
        <mxCell id="Z2hQnSYMev5sJFBsLuZH-44" value="" style="sketch=0;outlineConnect=0;fontColor=#232F3E;gradientColor=none;fillColor=#ED7100;strokeColor=none;dashed=0;verticalLabelPosition=bottom;verticalAlign=top;align=center;html=1;fontSize=12;fontStyle=0;aspect=fixed;pointerEvents=1;shape=mxgraph.aws4.ecs_task;" vertex="1" parent="Z2hQnSYMev5sJFBsLuZH-83">
          <mxGeometry x="205.75" y="28" width="22.5" height="29.19" as="geometry" />
        </mxCell>
        <mxCell id="Z2hQnSYMev5sJFBsLuZH-58" value="Container 1" style="text;html=1;align=center;verticalAlign=middle;whiteSpace=wrap;rounded=0;fontSize=10;" vertex="1" parent="Z2hQnSYMev5sJFBsLuZH-83">
          <mxGeometry x="87" y="119" width="57" height="30" as="geometry" />
        </mxCell>
        <mxCell id="Z2hQnSYMev5sJFBsLuZH-59" value="Container n" style="text;html=1;align=center;verticalAlign=middle;whiteSpace=wrap;rounded=0;fontSize=10;" vertex="1" parent="Z2hQnSYMev5sJFBsLuZH-83">
          <mxGeometry x="176" y="120" width="57" height="30" as="geometry" />
        </mxCell>
        <mxCell id="Z2hQnSYMev5sJFBsLuZH-61" value="ECS Task" style="text;html=1;align=center;verticalAlign=middle;whiteSpace=wrap;rounded=0;fontSize=10;" vertex="1" parent="Z2hQnSYMev5sJFBsLuZH-83">
          <mxGeometry x="185" y="56.190000000000055" width="57" height="30" as="geometry" />
        </mxCell>
        <mxCell id="Z2hQnSYMev5sJFBsLuZH-84" value="" style="group" vertex="1" connectable="0" parent="1">
          <mxGeometry x="526" y="580" width="261" height="127" as="geometry" />
        </mxCell>
        <mxCell id="Z2hQnSYMev5sJFBsLuZH-38" value="Public subnet" style="points=[[0,0],[0.25,0],[0.5,0],[0.75,0],[1,0],[1,0.25],[1,0.5],[1,0.75],[1,1],[0.75,1],[0.5,1],[0.25,1],[0,1],[0,0.75],[0,0.5],[0,0.25]];outlineConnect=0;gradientColor=none;html=1;whiteSpace=wrap;fontSize=12;fontStyle=0;container=1;pointerEvents=0;collapsible=0;recursiveResize=0;shape=mxgraph.aws4.group;grIcon=mxgraph.aws4.group_security_group;grStroke=0;strokeColor=#7AA116;fillColor=#F2F6E8;verticalAlign=top;align=left;spacingLeft=30;fontColor=#248814;dashed=0;" vertex="1" parent="Z2hQnSYMev5sJFBsLuZH-84">
          <mxGeometry width="261" height="127" as="geometry" />
        </mxCell>
        <mxCell id="Z2hQnSYMev5sJFBsLuZH-79" value="MSQL RDS for Caching" style="text;html=1;align=center;verticalAlign=middle;whiteSpace=wrap;rounded=0;fontSize=10;" vertex="1" parent="Z2hQnSYMev5sJFBsLuZH-84">
          <mxGeometry x="167" y="76.19" width="80" height="30" as="geometry" />
        </mxCell>
        <mxCell id="Z2hQnSYMev5sJFBsLuZH-78" value="" style="sketch=0;points=[[0,0,0],[0.25,0,0],[0.5,0,0],[0.75,0,0],[1,0,0],[0,1,0],[0.25,1,0],[0.5,1,0],[0.75,1,0],[1,1,0],[0,0.25,0],[0,0.5,0],[0,0.75,0],[1,0.25,0],[1,0.5,0],[1,0.75,0]];outlineConnect=0;fontColor=#232F3E;fillColor=#C925D1;strokeColor=#ffffff;dashed=0;verticalLabelPosition=bottom;verticalAlign=top;align=center;html=1;fontSize=12;fontStyle=0;aspect=fixed;shape=mxgraph.aws4.resourceIcon;resIcon=mxgraph.aws4.rds;" vertex="1" parent="Z2hQnSYMev5sJFBsLuZH-84">
          <mxGeometry x="184" y="23.689999999999998" width="52.5" height="52.5" as="geometry" />
        </mxCell>
        <mxCell id="Z2hQnSYMev5sJFBsLuZH-85" value="" style="edgeStyle=orthogonalEdgeStyle;rounded=0;orthogonalLoop=1;jettySize=auto;html=1;entryX=0.858;entryY=-0.035;entryDx=0;entryDy=0;entryPerimeter=0;" edge="1" parent="1">
          <mxGeometry relative="1" as="geometry">
            <mxPoint x="504" y="348" as="sourcePoint" />
            <mxPoint x="607" y="441" as="targetPoint" />
            <Array as="points">
              <mxPoint x="608" y="348" />
            </Array>
          </mxGeometry>
        </mxCell>
        <mxCell id="Z2hQnSYMev5sJFBsLuZH-80" value="" style="edgeStyle=orthogonalEdgeStyle;html=1;endArrow=classic;elbow=vertical;startArrow=block;startFill=1;strokeColor=#545B64;rounded=0;entryX=0;entryY=0.75;entryDx=0;entryDy=0;entryPerimeter=0;endFill=1;dashed=1;" edge="1" parent="1" source="Z2hQnSYMev5sJFBsLuZH-40" target="Z2hQnSYMev5sJFBsLuZH-78">
          <mxGeometry width="100" relative="1" as="geometry">
            <mxPoint x="270" y="330" as="sourcePoint" />
            <mxPoint x="370" y="330" as="targetPoint" />
            <Array as="points">
              <mxPoint x="670" y="643" />
            </Array>
          </mxGeometry>
        </mxCell>
        <mxCell id="Z2hQnSYMev5sJFBsLuZH-81" value="" style="edgeStyle=orthogonalEdgeStyle;html=1;endArrow=classic;elbow=vertical;startArrow=block;startFill=1;strokeColor=#545B64;rounded=0;endFill=1;entryX=1;entryY=0.5;entryDx=0;entryDy=0;exitX=0;exitY=0.75;exitDx=0;exitDy=0;exitPerimeter=0;dashed=1;" edge="1" parent="1" source="Z2hQnSYMev5sJFBsLuZH-78" target="Z2hQnSYMev5sJFBsLuZH-26">
          <mxGeometry width="100" relative="1" as="geometry">
            <mxPoint x="305" y="537.5" as="sourcePoint" />
            <mxPoint x="305" y="557.5" as="targetPoint" />
            <Array as="points">
              <mxPoint x="470" y="643" />
              <mxPoint x="470" y="501" />
            </Array>
          </mxGeometry>
        </mxCell>
        <mxCell id="Z2hQnSYMev5sJFBsLuZH-88" value="AWS Cloud" style="points=[[0,0],[0.25,0],[0.5,0],[0.75,0],[1,0],[1,0.25],[1,0.5],[1,0.75],[1,1],[0.75,1],[0.5,1],[0.25,1],[0,1],[0,0.75],[0,0.5],[0,0.25]];outlineConnect=0;gradientColor=none;html=1;whiteSpace=wrap;fontSize=12;fontStyle=0;container=1;pointerEvents=0;collapsible=0;recursiveResize=0;shape=mxgraph.aws4.group;grIcon=mxgraph.aws4.group_aws_cloud_alt;strokeColor=#232F3E;fillColor=none;verticalAlign=top;align=left;spacingLeft=30;fontColor=#232F3E;dashed=0;" vertex="1" parent="1">
          <mxGeometry x="81" y="98" width="759" height="662" as="geometry" />
        </mxCell>
      </root>
    </mxGraphModel>
  </diagram>
</mxfile>
